<svg width="38" height="38" viewBox="0 0 38 38" fill="none" xmlns="http://www.w3.org/2000/svg">
<circle cx="19" cy="19" r="19" fill="#EB6E34"/>
<g clip-path="url(#clip0_577_3496)">
<path d="M25.75 14.4851C23.2525 14.2376 20.74 14.1101 18.235 14.1101C16.7472 14.1102 15.2603 14.1853 13.78 14.3351L12.25 14.4851" stroke="white" stroke-width="1.5" stroke-linecap="round" stroke-linejoin="round"/>
<path d="M16.375 13.7275L16.54 12.745C16.66 12.0325 16.75 11.5 18.0175 11.5H19.9825C21.25 11.5 21.3475 12.0625 21.46 12.7525L21.625 13.7275" stroke="white" stroke-width="1.5" stroke-linecap="round" stroke-linejoin="round"/>
<path d="M24.1375 16.855L23.65 24.4075C23.5675 25.585 23.5 26.5 21.4075 26.5H16.5925C14.5 26.5 14.4325 25.585 14.35 24.4075L13.8625 16.855" stroke="white" stroke-width="1.5" stroke-linecap="round" stroke-linejoin="round"/>
<path d="M17.7476 22.375H20.2451" stroke="white" stroke-width="1.5" stroke-linecap="round" stroke-linejoin="round"/>
<path d="M17.125 19.375H20.875" stroke="white" stroke-width="1.5" stroke-linecap="round" stroke-linejoin="round"/>
</g>
<defs>
<clipPath id="clip0_577_3496">
<rect width="18" height="18" fill="white" transform="translate(10 10)"/>
</clipPath>
</defs>
</svg>
