<svg width="50" height="43" viewBox="0 0 50 43" fill="none" xmlns="http://www.w3.org/2000/svg">
<path d="M12.0528 15.7622C12.0528 14.9439 11.499 14.2805 10.8158 14.2805C10.1327 14.2805 9.57886 14.9439 9.57886 15.7622V27.103C9.57886 27.9214 10.1327 28.5848 10.8158 28.5848C11.499 28.5848 12.0528 27.9214 12.0528 27.103V15.7622Z" fill="#EB6E34"/>
<path d="M17.7524 9.02591C17.7524 8.20756 17.1986 7.54416 16.5154 7.54416C15.8323 7.54416 15.2784 8.20756 15.2784 9.02591V33.9747C15.2784 34.7931 15.8323 35.4565 16.5154 35.4565C17.1986 35.4565 17.7524 34.7931 17.7524 33.9747V9.02591Z" fill="#EB6E34"/>
<path d="M23.4088 15.8299C23.4088 15.0115 22.855 14.3481 22.1718 14.3481C21.4886 14.3481 20.9348 15.0115 20.9348 15.8299V27.1707C20.9348 27.989 21.4886 28.6524 22.1718 28.6524C22.855 28.6524 23.4088 27.989 23.4088 27.1707V15.8299Z" fill="#EB6E34"/>
<path d="M29.0656 9.02591C29.0656 8.20756 28.5118 7.54416 27.8287 7.54416C27.1455 7.54416 26.5917 8.20756 26.5917 9.02591V33.9747C26.5917 34.7931 27.1455 35.4565 27.8287 35.4565C28.5118 35.4565 29.0656 34.7931 29.0656 33.9747V9.02591Z" fill="#EB6E34"/>
<path d="M34.722 15.8299C34.722 15.0115 34.1682 14.3481 33.485 14.3481C32.8019 14.3481 32.248 15.0115 32.248 15.8299V27.1707C32.248 27.989 32.8019 28.6524 33.485 28.6524C34.1682 28.6524 34.722 27.989 34.722 27.1707V15.8299Z" fill="#EB6E34"/>
<path d="M40.3788 9.02591C40.3788 8.20756 39.825 7.54416 39.1418 7.54416C38.4587 7.54416 37.9048 8.20756 37.9048 9.02591V33.9747C37.9048 34.7931 38.4587 35.4565 39.1418 35.4565C39.825 35.4565 40.3788 34.7931 40.3788 33.9747V9.02591Z" fill="#EB6E34"/>
<path d="M44.7176 0H40.3364C39.9948 3.44947e-08 39.6672 0.162557 39.4256 0.45192C39.184 0.741283 39.0483 1.13374 39.0483 1.54296C39.0483 1.95218 39.184 2.34465 39.4256 2.63401C39.6672 2.92337 39.9948 3.08594 40.3364 3.08594H44.7176C45.434 3.09103 46.1199 3.4342 46.6265 4.04104C47.1331 4.64788 47.4196 5.46948 47.4239 6.32766V11.5758C47.4239 11.985 47.5596 12.3774 47.8011 12.6668C48.0427 12.9561 48.3703 13.1187 48.7119 13.1187C49.0536 13.1187 49.3812 12.9561 49.6228 12.6668C49.8643 12.3774 50 11.985 50 11.5758V6.32866C49.9938 4.65266 49.4353 3.04743 48.446 1.86222C47.4567 0.677007 46.1168 0.00772569 44.7176 0Z" fill="#EB6E34"/>
<path d="M5.28243 43H9.66319C9.83234 43 9.99984 42.9601 10.1561 42.8826C10.3124 42.805 10.4544 42.6914 10.574 42.5481C10.6936 42.4048 10.7885 42.2347 10.8532 42.0475C10.918 41.8603 10.9513 41.6597 10.9513 41.457C10.9513 41.2544 10.918 41.0538 10.8532 40.8666C10.7885 40.6794 10.6936 40.5093 10.574 40.366C10.4544 40.2227 10.3124 40.1091 10.1561 40.0315C9.99984 39.954 9.83234 39.9141 9.66319 39.9141H5.28243C4.56604 39.9091 3.88016 39.566 3.37355 38.9593C2.86694 38.3525 2.58044 37.531 2.57619 36.6728V31.4238C2.57619 31.0145 2.44047 30.6221 2.19891 30.3327C1.95734 30.0434 1.62972 29.8808 1.28809 29.8808C0.946471 29.8808 0.618833 30.0434 0.377269 30.3327C0.135705 30.6221 0 31.0145 0 31.4238V36.6718C0.00633864 38.3477 0.564905 39.9529 1.55417 41.138C2.54343 42.3231 3.88336 42.9923 5.28243 43Z" fill="#EB6E34"/>
</svg>
