<svg width="54" height="49" viewBox="0 0 54 49" fill="none" xmlns="http://www.w3.org/2000/svg">
<path d="M29.2719 31.9268C29.2719 30.2699 30.6151 28.9268 32.2719 28.9268L39.4287 28.9268C41.0855 28.9268 42.4287 30.2699 42.4287 31.9268V33.4574H29.2719V31.9268Z" fill="#D94D0D"/>
<path d="M31.5599 28.9268C32.8236 28.9268 33.848 29.9512 33.848 31.2149V39.6643C33.848 40.928 32.8236 41.9524 31.5599 41.9524C30.2962 41.9524 29.2718 40.928 29.2718 39.6643V31.2149C29.2718 29.9512 30.2962 28.9268 31.5599 28.9268Z" fill="#D94D0D"/>
<path d="M40.1405 28.9268C41.4042 28.9268 42.4286 29.9512 42.4286 31.2149V39.6643C42.4286 40.928 41.4042 41.9524 40.1405 41.9524C38.8768 41.9524 37.8523 40.928 37.8523 39.6643V31.2149C37.8523 29.9512 38.8768 28.9268 40.1405 28.9268Z" fill="#D94D0D"/>
<path d="M46.0164 0.246338H41.1944C40.8184 0.246338 40.4578 0.404996 40.192 0.687417C39.9261 0.969839 39.7767 1.35288 39.7767 1.75229C39.7767 2.15169 39.9261 2.53474 40.192 2.81716C40.4578 3.09958 40.8184 3.25825 41.1944 3.25825H46.0164C46.8049 3.26322 47.5598 3.59816 48.1174 4.19044C48.6749 4.78273 48.9903 5.58461 48.9949 6.42221V11.5444C48.9949 11.9438 49.1443 12.3268 49.4102 12.6093C49.676 12.8917 50.0366 13.0504 50.4126 13.0504C50.7886 13.0504 51.1492 12.8917 51.4151 12.6093C51.6809 12.3268 51.8303 11.9438 51.8303 11.5444V6.42318C51.8234 4.78739 51.2087 3.22067 50.1199 2.06388C49.0311 0.907104 47.5563 0.253878 46.0164 0.246338Z" fill="#D94D0D"/>
<path d="M2.41077 5.9383L2.41077 10.8635C2.41077 11.2475 2.5661 11.6158 2.8426 11.8874C3.11911 12.159 3.49413 12.3115 3.88516 12.3115C4.2762 12.3115 4.65122 12.159 4.92772 11.8874C5.20422 11.6158 5.35956 11.2475 5.35956 10.8635V5.9383C5.36443 5.13291 5.69235 4.36187 6.27222 3.79237C6.8521 3.22286 7.63718 2.90081 8.45723 2.89603H13.4721C13.8631 2.89603 14.2381 2.74347 14.5146 2.47191C14.7911 2.20035 14.9465 1.83203 14.9465 1.44799C14.9465 1.06395 14.7911 0.69564 14.5146 0.42408C14.2381 0.152521 13.8631 -3.43323e-05 13.4721 -3.43323e-05H8.45818C6.85666 0.0069685 5.32277 0.63483 4.19023 1.74694C3.05769 2.85906 2.41815 4.36543 2.41077 5.9383Z" fill="#D94D0D"/>
<path d="M8.94782 49H13.7698C14.1458 49 14.5064 48.8413 14.7723 48.5589C15.0381 48.2765 15.1875 47.8935 15.1875 47.494C15.1875 47.0946 15.0381 46.7116 14.7723 46.4292C14.5064 46.1468 14.1458 45.9881 13.7698 45.9881H8.94782C8.15932 45.9831 7.40443 45.6482 6.84686 45.0559C6.28929 44.4636 5.97398 43.6617 5.9693 42.8241L5.9693 37.7019C5.9693 37.3025 5.81994 36.9195 5.55407 36.6371C5.28821 36.3546 4.9276 36.196 4.55161 36.196C4.17561 36.196 3.81502 36.3546 3.54916 36.6371C3.28329 36.9195 3.13393 37.3025 3.13393 37.7019L3.13393 42.8232C3.14078 44.4589 3.75549 46.0257 4.8443 47.1825C5.93311 48.3392 7.40791 48.9925 8.94782 49Z" fill="#D94D0D"/>
<path d="M52.0714 42.8154V37.8902C52.0714 37.5061 51.9161 37.1378 51.6396 36.8663C51.3631 36.5947 50.9881 36.4421 50.597 36.4421C50.206 36.4421 49.831 36.5947 49.5545 36.8663C49.278 37.1378 49.1226 37.5061 49.1226 37.8902V42.8154C49.1177 43.6207 48.7898 44.3918 48.21 44.9613C47.6301 45.5308 46.845 45.8529 46.025 45.8576H41.0101C40.6191 45.8576 40.244 46.0102 39.9675 46.2818C39.691 46.5533 39.5357 46.9216 39.5357 47.3057C39.5357 47.6897 39.691 48.058 39.9675 48.3296C40.244 48.6011 40.6191 48.7537 41.0101 48.7537H46.024C47.6255 48.7467 49.1594 48.1188 50.292 47.0067C51.4245 45.8946 52.064 44.3882 52.0714 42.8154Z" fill="#D94D0D"/>
<rect x="12.0536" y="28.9268" width="12.5847" height="13.0256" rx="3" fill="#D94D0D"/>
<rect x="12.0536" y="7.47998" width="12.5847" height="13.0256" rx="3" fill="#D94D0D"/>
<rect x="29.2719" y="7.47998" width="12.5847" height="13.0256" rx="3" fill="#D94D0D"/>
<rect y="22.2776" width="54" height="4.92462" fill="#D94D0D"/>
</svg>
