<svg width="47" height="48" viewBox="0 0 47 48" fill="none" xmlns="http://www.w3.org/2000/svg">
<path d="M22.5 28C22.5 26.0109 21.7098 24.1032 20.3033 22.6967C18.8968 21.2902 16.9891 20.5 15 20.5C13.0109 20.5 11.1032 21.2902 9.6967 22.6967C8.29018 24.1032 7.5 26.0109 7.5 28C7.5 36.75 3.75 39.25 3.75 39.25H26.25C26.25 39.25 22.5 36.75 22.5 28Z" stroke="#626262" stroke-width="2" stroke-linecap="round" stroke-linejoin="round"/>
<path d="M17.1624 44.25C16.9426 44.6288 16.6272 44.9433 16.2477 45.1619C15.8682 45.3805 15.4379 45.4956 14.9999 45.4956C14.5619 45.4956 14.1316 45.3805 13.7521 45.1619C13.3726 44.9433 13.0572 44.6288 12.8374 44.25" stroke="#626262" stroke-width="2" stroke-linecap="round" stroke-linejoin="round"/>
<circle cx="37" cy="12" r="10" fill="#D94D0D"/>
<path d="M39.032 5.432V17H37.528V5.432H39.032ZM31.544 13.272L37 5.432H38.68L33.176 13.368L31.544 13.272ZM40.408 14.664H31.544V13.272H40.408V14.664Z" fill="white"/>
</svg>
