<svg width="122" height="122" viewBox="0 0 122 122" fill="none" xmlns="http://www.w3.org/2000/svg">
<path d="M61 121C94.1371 121 121 94.1371 121 61C121 27.8629 94.1371 1 61 1C27.8629 1 1 27.8629 1 61C1 94.1371 27.8629 121 61 121Z" stroke="#707070" stroke-width="2" stroke-linecap="round" stroke-linejoin="round" stroke-dasharray="4 4"/>
<path d="M33.14 86H32.12L34.76 78.77H35.85L38.5 86H37.47L36.82 84.2H33.78L33.14 86ZM35.18 80.33L34.08 83.35H36.53L35.42 80.33C35.4 80.2567 35.3767 80.1833 35.35 80.11C35.3233 80.03 35.3067 79.9633 35.3 79.91C35.2867 79.9633 35.27 80.03 35.25 80.11C35.23 80.1833 35.2067 80.2567 35.18 80.33ZM41.8511 86H39.4611V78.77H41.8111C42.5311 78.77 43.1611 78.9233 43.7011 79.23C44.2478 79.53 44.6711 79.9533 44.9711 80.5C45.2778 81.04 45.4311 81.67 45.4311 82.39C45.4311 83.1033 45.2811 83.7333 44.9811 84.28C44.6811 84.82 44.2611 85.2433 43.7211 85.55C43.1878 85.85 42.5644 86 41.8511 86ZM40.4411 79.23V85.55L39.9811 85.09H41.7811C42.3211 85.09 42.7844 84.98 43.1711 84.76C43.5644 84.54 43.8678 84.23 44.0811 83.83C44.3011 83.4233 44.4111 82.9433 44.4111 82.39C44.4111 81.83 44.3011 81.3467 44.0811 80.94C43.8678 80.5333 43.5611 80.22 43.1611 80C42.7678 79.78 42.2944 79.67 41.7411 79.67H39.9811L40.4411 79.23ZM49.0679 86H46.6779V78.77H49.0279C49.7479 78.77 50.3779 78.9233 50.9179 79.23C51.4646 79.53 51.8879 79.9533 52.1879 80.5C52.4946 81.04 52.6479 81.67 52.6479 82.39C52.6479 83.1033 52.4979 83.7333 52.1979 84.28C51.8979 84.82 51.4779 85.2433 50.9379 85.55C50.4046 85.85 49.7812 86 49.0679 86ZM47.6579 79.23V85.55L47.1979 85.09H48.9979C49.5379 85.09 50.0012 84.98 50.3879 84.76C50.7812 84.54 51.0846 84.23 51.2979 83.83C51.5179 83.4233 51.6279 82.9433 51.6279 82.39C51.6279 81.83 51.5179 81.3467 51.2979 80.94C51.0846 80.5333 50.7779 80.22 50.3779 80C49.9846 79.78 49.5112 79.67 48.9579 79.67H47.1979L47.6579 79.23ZM57.6091 78.77V86H56.6291V78.77H57.6091ZM59.4391 83.42H57.3891V82.54H59.2291C59.7157 82.54 60.0891 82.41 60.3491 82.15C60.6091 81.8833 60.7391 81.5267 60.7391 81.08C60.7391 80.6267 60.6091 80.2767 60.3491 80.03C60.0891 79.7767 59.7291 79.65 59.2691 79.65H57.1691V78.77H59.4391C59.9124 78.77 60.3224 78.8667 60.6691 79.06C61.0157 79.2533 61.2857 79.5233 61.4791 79.87C61.6724 80.2167 61.7691 80.6233 61.7691 81.09C61.7691 81.5367 61.6724 81.9367 61.4791 82.29C61.2857 82.6433 61.0157 82.92 60.6691 83.12C60.3224 83.32 59.9124 83.42 59.4391 83.42ZM63.8591 86H62.8791V78.77H63.8591V81.88H67.4391V78.77H68.4191V86H67.4391V82.79H63.8591V86ZM76.6159 82.38C76.6159 83.1133 76.4659 83.7633 76.1659 84.33C75.8725 84.89 75.4625 85.33 74.9359 85.65C74.4159 85.9633 73.8125 86.12 73.1259 86.12C72.4525 86.12 71.8525 85.9633 71.3259 85.65C70.8059 85.33 70.3992 84.89 70.1059 84.33C69.8125 83.77 69.6659 83.12 69.6659 82.38C69.6659 81.6467 69.8125 81 70.1059 80.44C70.4059 79.88 70.8159 79.44 71.3359 79.12C71.8559 78.8 72.4559 78.64 73.1359 78.64C73.8225 78.64 74.4259 78.8 74.9459 79.12C75.4659 79.44 75.8725 79.88 76.1659 80.44C76.4659 81 76.6159 81.6467 76.6159 82.38ZM75.5859 82.38C75.5859 81.82 75.4825 81.33 75.2759 80.91C75.0759 80.49 74.7925 80.1667 74.4259 79.94C74.0592 79.7067 73.6292 79.59 73.1359 79.59C72.6492 79.59 72.2225 79.7067 71.8559 79.94C71.4892 80.1667 71.2025 80.49 70.9959 80.91C70.7959 81.33 70.6959 81.82 70.6959 82.38C70.6959 82.94 70.7959 83.43 70.9959 83.85C71.2025 84.27 71.4892 84.5967 71.8559 84.83C72.2225 85.0633 72.6492 85.18 73.1359 85.18C73.6292 85.18 74.0592 85.0633 74.4259 84.83C74.7925 84.59 75.0759 84.26 75.2759 83.84C75.4825 83.42 75.5859 82.9333 75.5859 82.38ZM80.0754 79.22V86H79.0954V79.22H80.0754ZM76.9154 79.67V78.77H82.2454V79.67H76.9154ZM89.4772 82.38C89.4772 83.1133 89.3272 83.7633 89.0272 84.33C88.7339 84.89 88.3239 85.33 87.7972 85.65C87.2772 85.9633 86.6739 86.12 85.9872 86.12C85.3139 86.12 84.7139 85.9633 84.1872 85.65C83.6672 85.33 83.2605 84.89 82.9672 84.33C82.6739 83.77 82.5272 83.12 82.5272 82.38C82.5272 81.6467 82.6739 81 82.9672 80.44C83.2672 79.88 83.6772 79.44 84.1972 79.12C84.7172 78.8 85.3172 78.64 85.9972 78.64C86.6839 78.64 87.2872 78.8 87.8072 79.12C88.3272 79.44 88.7339 79.88 89.0272 80.44C89.3272 81 89.4772 81.6467 89.4772 82.38ZM88.4472 82.38C88.4472 81.82 88.3439 81.33 88.1372 80.91C87.9372 80.49 87.6539 80.1667 87.2872 79.94C86.9205 79.7067 86.4905 79.59 85.9972 79.59C85.5105 79.59 85.0839 79.7067 84.7172 79.94C84.3505 80.1667 84.0639 80.49 83.8572 80.91C83.6572 81.33 83.5572 81.82 83.5572 82.38C83.5572 82.94 83.6572 83.43 83.8572 83.85C84.0639 84.27 84.3505 84.5967 84.7172 84.83C85.0839 85.0633 85.5105 85.18 85.9972 85.18C86.4905 85.18 86.9205 85.0633 87.2872 84.83C87.6539 84.59 87.9372 84.26 88.1372 83.84C88.3439 83.42 88.4472 82.9333 88.4472 82.38Z" fill="#757575"/>
<path fill-rule="evenodd" clip-rule="evenodd" d="M80 70H42C40.9391 70 39.9217 69.5786 39.1716 68.8284C38.4214 68.0783 38 67.0609 38 66V40C38 38.9391 38.4214 37.9217 39.1716 37.1716C39.9217 36.4214 40.9391 36 42 36H80C81.0609 36 82.0783 36.4214 82.8284 37.1716C83.5786 37.9217 84 38.9391 84 40V66C84 67.0609 83.5786 68.0783 82.8284 68.8284C82.0783 69.5786 81.0609 70 80 70ZM82 40C82 39.4696 81.7893 38.9609 81.4142 38.5858C81.0391 38.2107 80.5304 38 80 38H42C41.4696 38 40.9609 38.2107 40.5858 38.5858C40.2107 38.9609 40 39.4696 40 40V66C40 66.5304 40.2107 67.0391 40.5858 67.4142C40.9609 67.7893 41.4696 68 42 68H80C80.5304 68 81.0391 67.7893 81.4142 67.4142C81.7893 67.0391 82 66.5304 82 66V40ZM78.334 63.715L72 57.381L68.381 61L71.715 64.334C71.8887 64.519 71.9836 64.7644 71.9796 65.0181C71.9756 65.2719 71.873 65.5141 71.6936 65.6936C71.5141 65.873 71.2719 65.9756 71.0181 65.9796C70.7644 65.9836 70.519 65.8887 70.334 65.715L56 51.381L43.666 63.715C43.481 63.8887 43.2356 63.9836 42.9819 63.9796C42.7281 63.9756 42.4859 63.873 42.3064 63.6936C42.127 63.5141 42.0244 63.2719 42.0204 63.0181C42.0164 62.7644 42.1113 62.519 42.285 62.334L55.19 49.434C55.217 49.3831 55.2488 49.3348 55.285 49.29C55.3802 49.1718 55.5032 49.0791 55.643 49.0201C55.7829 48.9611 55.9351 48.9377 56.0862 48.9519C56.2373 48.9662 56.3825 49.0177 56.5088 49.1018C56.6351 49.1859 56.7386 49.3001 56.81 49.434L67 59.619L71.19 55.429C71.2192 55.3782 71.2526 55.33 71.29 55.285C71.4843 55.1044 71.7397 55.0039 72.005 55.0039C72.2703 55.0039 72.5257 55.1044 72.72 55.285C72.7574 55.33 72.7908 55.3782 72.82 55.429L79.72 62.334C79.8937 62.519 79.9886 62.7644 79.9846 63.0181C79.9806 63.2719 79.878 63.5141 79.6986 63.6936C79.5191 63.873 79.2769 63.9756 79.0231 63.9796C78.7694 63.9836 78.524 63.8887 78.339 63.715H78.334ZM66 48C65.2089 48 64.4355 47.7654 63.7777 47.3259C63.1199 46.8864 62.6072 46.2616 62.3045 45.5307C62.0017 44.7998 61.9225 43.9956 62.0769 43.2196C62.2312 42.4437 62.6122 41.731 63.1716 41.1716C63.731 40.6122 64.4437 40.2312 65.2196 40.0769C65.9956 39.9225 66.7998 40.0017 67.5307 40.3045C68.2616 40.6072 68.8864 41.1199 69.3259 41.7777C69.7654 42.4355 70 43.2089 70 44C70 45.0609 69.5786 46.0783 68.8284 46.8284C68.0783 47.5786 67.0609 48 66 48ZM66 42C65.6044 42 65.2178 42.1173 64.8889 42.3371C64.56 42.5568 64.3036 42.8692 64.1522 43.2346C64.0009 43.6001 63.9613 44.0022 64.0384 44.3902C64.1156 44.7781 64.3061 45.1345 64.5858 45.4142C64.8655 45.6939 65.2219 45.8844 65.6098 45.9616C65.9978 46.0387 66.3999 45.9991 66.7654 45.8478C67.1308 45.6964 67.4432 45.44 67.6629 45.1111C67.8827 44.7822 68 44.3956 68 44C68 43.4696 67.7893 42.9609 67.4142 42.5858C67.0391 42.2107 66.5304 42 66 42Z" fill="#757575"/>
</svg>
