<svg width="27" height="27" viewBox="0 0 27 27" fill="none" xmlns="http://www.w3.org/2000/svg">
<path d="M18 23.625V21C18 19.6076 17.5259 18.2723 16.682 17.2877C15.8381 16.3031 14.6935 15.75 13.5 15.75H5.625C4.43153 15.75 3.28693 16.3031 2.44302 17.2877C1.59911 18.2723 1.125 19.6076 1.125 21V23.625" stroke="#626262" stroke-width="2" stroke-linecap="round" stroke-linejoin="round"/>
<path d="M9.5625 12.375C12.0478 12.375 14.0625 10.3603 14.0625 7.875C14.0625 5.38972 12.0478 3.375 9.5625 3.375C7.07722 3.375 5.0625 5.38972 5.0625 7.875C5.0625 10.3603 7.07722 12.375 9.5625 12.375Z" stroke="#626262" stroke-width="2" stroke-linecap="round" stroke-linejoin="round"/>
<path d="M22.5 9V15.75" stroke="#626262" stroke-width="2" stroke-linecap="round" stroke-linejoin="round"/>
<path d="M25.875 12.375H19.125" stroke="#626262" stroke-width="2" stroke-linecap="round" stroke-linejoin="round"/>
</svg>
