<svg width="100" height="100" viewBox="0 0 100 100" fill="none" xmlns="http://www.w3.org/2000/svg">
<circle cx="50" cy="50" r="49" fill="#EB6E34" fill-opacity="0.22" stroke="#D94D0D" stroke-width="2"/>
<path d="M68 71H33C32.7348 71 32.4804 70.8946 32.2929 70.7071C32.1054 70.5196 32 70.2652 32 70V30C32 29.7348 32.1054 29.4804 32.2929 29.2929C32.4804 29.1054 32.7348 29 33 29C33.2652 29 33.5196 29.1054 33.7071 29.2929C33.8946 29.4804 34 29.7348 34 30V69H38V53C38 52.4696 38.2107 51.9609 38.5858 51.5858C38.9609 51.2107 39.4696 51 40 51H44C44.5304 51 45.0391 51.2107 45.4142 51.5858C45.7893 51.9609 46 52.4696 46 53V69H50V37C50 36.4696 50.2107 35.9609 50.5858 35.5858C50.9609 35.2107 51.4696 35 52 35H56C56.5304 35 57.0391 35.2107 57.4142 35.5858C57.7893 35.9609 58 36.4696 58 37V69H62V61C62 60.4696 62.2107 59.9609 62.5858 59.5858C62.9609 59.2107 63.4696 59 64 59H68C68.5304 59 69.0391 59.2107 69.4142 59.5858C69.7893 59.9609 70 60.4696 70 61V69H73C73.2652 69 73.5196 69.1054 73.7071 69.2929C73.8946 69.4804 74 69.7348 74 70C74 70.2652 73.8946 70.5196 73.7071 70.7071C73.5196 70.8946 73.2652 71 73 71H68ZM68 69V61H64V69H68ZM56 69V37H52V69H56ZM44 69V53H40V69H44Z" fill="#EB6E34"/>
</svg>
